<?xml version="1.0" encoding="utf-8"?>
<!-- Generator: Adobe Illustrator 24.1.3, SVG Export Plug-In . SVG Version: 6.00 Build 0)  -->
<svg version="1.1" id="Layer_1" xmlns="http://www.w3.org/2000/svg" xmlns:xlink="http://www.w3.org/1999/xlink" x="0px" y="0px"
	 viewBox="0 0 382 382" style="enable-background:new 0 0 382 382;" xml:space="preserve">
<style type="text/css">
	.st0{fill:#FFFFFF;}
</style>
<path class="st0" d="M382,0H0v382c0,0,0,0,0,0h382c0,0,0,0,0,0V0z M118.2,140.3v199.6H55.3V140.3H118.2z M115.7,113.2
	c-43,31.7-91-16.3-59.4-59.4c0.4-0.6,0.9-1.1,1.5-1.5c43-31.7,91,16.3,59.4,59.4C116.8,112.3,116.3,112.8,115.7,113.2z M341.9,330.7
	c0,5.1-4.1,9.2-9.2,9.2h-55.2v-93.4c0-12.6,3.7-55-32.8-55c-28.3,0-34.1,29.1-35.2,42.1v106.3h-62.9V140.3h62.9v24.9
	c10.5-15.8,26.1-27.9,59.3-27.9c73.6,0,73.1,68.7,73.1,106.5L341.9,330.7L341.9,330.7z"/>
</svg>
