<?xml version="1.0" encoding="utf-8"?>
<!-- Generator: Adobe Illustrator 24.1.3, SVG Export Plug-In . SVG Version: 6.00 Build 0)  -->
<svg version="1.1" id="Layer_1" xmlns="http://www.w3.org/2000/svg" xmlns:xlink="http://www.w3.org/1999/xlink" x="0px" y="0px"
	 viewBox="0 0 967.9 480" style="enable-background:new 0 0 967.9 480;" xml:space="preserve">
<style type="text/css">
	.st0{fill:none;}
	.st1{enable-background:new    ;}
	.st2{fill:#1D1D1B;}
	.st3{font-family:'FiraSans-Regular';}
	.st4{font-size:70.7586px;}
	.st5{fill:#575756;}
	.st6{fill:none;stroke:#575756;stroke-width:2.1973;stroke-miterlimit:10;}
	.st7{fill:#3360A8;stroke:#3360A8;stroke-width:0.673;stroke-miterlimit:10;}
	.st8{fill:#3360A8;stroke:#FFC21A;stroke-width:5.0116;stroke-miterlimit:10;}
	.st9{fill:none;stroke:#FFFFFF;stroke-width:5.0978;stroke-miterlimit:10;}
	.st10{fill:none;stroke:#FFFFFF;stroke-width:1.703;stroke-miterlimit:10;}
	.st11{fill:none;stroke:#FFFFFF;stroke-width:2.3156;stroke-miterlimit:10;}
	.st12{fill:none;stroke:#FFFFFF;stroke-width:5.109;stroke-miterlimit:10;}
</style>
<g>
	<rect x="473.5" y="177.8" class="st0" width="334" height="71.6"/>
	<g class="st1">
		<path class="st2" d="M551.7,212.5c0,11.1-5.2,19.2-15.1,19.2c-4.2,0-7.6-1.3-10.1-4.2v17.4l-6.7,0.8v-51.5h5.8l0.5,4.9
			c2.8-3.8,7-5.8,11.4-5.8C547.6,193.4,551.7,201,551.7,212.5z M544.4,212.5c0-9.5-2.9-14.1-8.7-14.1c-4.1,0-7.2,2.8-9.3,5.7v17.9
			c2,2.9,5,4.5,8.5,4.5C541.1,226.5,544.4,222.1,544.4,212.5z"/>
		<path class="st2" d="M571.2,181c0,2.4-1.9,4.3-4.7,4.3c-2.8,0-4.7-1.9-4.7-4.3c0-2.5,1.9-4.4,4.7-4.4
			C569.3,176.6,571.2,178.5,571.2,181z M569.9,230.9h-6.7v-36.7h6.7V230.9z"/>
		<path class="st2" d="M615.3,212.5c0,11.3-6.3,19.2-17.2,19.2c-11,0-17.2-7.5-17.2-19.1c0-11.3,6.3-19.2,17.2-19.2
			S615.3,200.9,615.3,212.5z M588.2,212.6c0,9.5,3.5,14,9.9,14c6.4,0,9.9-4.5,9.9-14.1c0-9.5-3.5-14-9.9-14
			C591.8,198.5,588.2,203,588.2,212.6z"/>
		<path class="st2" d="M655.7,204.6v26.3H649v-25.4c0-5.5-2.3-7.1-6.1-7.1c-4.3,0-7.2,2.6-9.8,6.5v26h-6.7v-36.7h5.8l0.6,5.4
			c2.6-3.8,6.7-6.3,11.8-6.3C651.6,193.4,655.7,197.6,655.7,204.6z"/>
		<path class="st2" d="M698.1,214.7h-24.5c0.7,8.5,4.8,11.8,10.4,11.8c3.8,0,6.6-1,10-3.2l2.9,3.8c-3.8,2.9-8.1,4.6-13.4,4.6
			c-10.7,0-17-7.2-17-18.8c0-11.4,6.1-19.6,16-19.6c10.4,0,15.9,6.9,15.9,18.1C698.3,212.7,698.2,213.9,698.1,214.7z M691.6,209.6
			c0-7.2-3-11.1-9.1-11.1c-5.1,0-8.5,3.4-9,11.6h18V209.6z"/>
		<path class="st2" d="M738,214.7h-24.5c0.7,8.5,4.8,11.8,10.4,11.8c3.8,0,6.6-1,10-3.2l2.9,3.8c-3.8,2.9-8.1,4.6-13.4,4.6
			c-10.7,0-17-7.2-17-18.8c0-11.4,6.1-19.6,16-19.6c10.4,0,15.9,6.9,15.9,18.1C738.1,212.7,738,213.9,738,214.7z M731.5,209.6
			c0-7.2-3-11.1-9.1-11.1c-5.1,0-8.5,3.4-9,11.6h18V209.6z"/>
		<path class="st2" d="M769.4,193.8l-1.2,6.3c-1.2-0.3-2-0.4-3.4-0.4c-4.8,0-7.6,3.3-9.2,10.3v20.9h-6.7v-36.7h5.8l0.7,7.4
			c2-5.5,5.6-8.3,10.3-8.3C766.8,193.4,768.2,193.5,769.4,193.8z"/>
	</g>
	<text transform="matrix(1.05 0 0 1 768.2051 230.8898)" class="st2 st3 st4">  </text>
	<rect x="480.1" y="277.9" class="st0" width="333.4" height="26"/>
	<g class="st1">
		<path class="st5" d="M484.6,294.5h-2.2v-15.3h2.2V294.5z"/>
		<path class="st5" d="M498.5,286.2v8.4h-2.1v-8.1c0-1.7-0.7-2.3-1.9-2.3c-1.4,0-2.3,0.8-3.1,2.1v8.3h-2.1v-11.7h1.8l0.2,1.7
			c0.8-1.2,2.1-2,3.7-2C497.2,282.6,498.5,284,498.5,286.2z"/>
		<path class="st5" d="M512.1,286.2v8.4H510v-8.1c0-1.7-0.7-2.3-1.9-2.3c-1.4,0-2.3,0.8-3.1,2.1v8.3h-2.1v-11.7h1.8l0.2,1.7
			c0.8-1.2,2.1-2,3.7-2C510.8,282.6,512.1,284,512.1,286.2z"/>
		<path class="st5" d="M526.5,288.7c0,3.6-2,6.1-5.5,6.1c-3.5,0-5.5-2.4-5.5-6.1c0-3.6,2-6.1,5.5-6.1S526.5,285,526.5,288.7z
			 M517.8,288.7c0,3,1.1,4.5,3.2,4.5c2,0,3.2-1.4,3.2-4.5c0-3-1.1-4.5-3.1-4.5C519,284.2,517.8,285.7,517.8,288.7z"/>
		<path class="st5" d="M534.7,294.5h-2.6l-4.2-11.7h2.3l3.2,9.9l3.2-9.9h2.3L534.7,294.5z"/>
		<path class="st5" d="M550.3,293.4l-0.5,1.4c-1.2-0.1-2-0.6-2.4-1.7c-0.9,1.2-2.2,1.7-3.7,1.7c-2.4,0-3.9-1.4-3.9-3.5
			c0-2.5,2-3.9,5.4-3.9h1.9v-0.9c0-1.7-0.9-2.3-2.6-2.3c-0.9,0-2,0.2-3.3,0.6l-0.5-1.5c1.5-0.5,2.9-0.8,4.2-0.8c3,0,4.3,1.4,4.3,3.9
			v5.3C549.2,292.8,549.6,293.2,550.3,293.4z M547.1,291.5v-2.7h-1.6c-2.3,0-3.4,0.8-3.4,2.4c0,1.4,0.7,2.1,2.1,2.1
			C545.5,293.3,546.4,292.7,547.1,291.5z"/>
		<path class="st5" d="M559.8,294c-0.8,0.5-1.7,0.8-2.7,0.8c-2.1,0-3.3-1.2-3.3-3.3v-7h-2.1v-1.6h2.1v-2.6l2.1-0.2v2.9h2.9l-0.2,1.6
			h-2.7v7c0,1.2,0.4,1.7,1.5,1.7c0.5,0,1-0.2,1.6-0.5L559.8,294z"/>
		<path class="st5" d="M564.6,278.7c0,0.8-0.6,1.4-1.5,1.4c-0.9,0-1.5-0.6-1.5-1.4c0-0.8,0.6-1.4,1.5-1.4
			C564,277.3,564.6,277.9,564.6,278.7z M564.2,294.5H562v-11.7h2.1V294.5z"/>
		<path class="st5" d="M573.4,294.5h-2.6l-4.2-11.7h2.3l3.2,9.9l3.2-9.9h2.3L573.4,294.5z"/>
		<path class="st5" d="M589.1,289.4h-7.8c0.2,2.7,1.5,3.7,3.3,3.7c1.2,0,2.1-0.3,3.2-1l0.9,1.2c-1.2,0.9-2.6,1.5-4.3,1.5
			c-3.4,0-5.4-2.3-5.4-6c0-3.6,1.9-6.2,5.1-6.2c3.3,0,5,2.2,5,5.8C589.2,288.8,589.2,289.1,589.1,289.4z M587.1,287.8
			c0-2.3-1-3.5-2.9-3.5c-1.6,0-2.7,1.1-2.9,3.7h5.7V287.8z"/>
		<path class="st5" d="M594.5,293.2c0,0.9-0.7,1.5-1.6,1.5c-0.9,0-1.6-0.7-1.6-1.5c0-0.8,0.7-1.5,1.6-1.5
			C593.9,291.7,594.5,292.4,594.5,293.2z"/>
		<path class="st5" d="M614.3,280.5l-1.2,1.4c-1-0.8-2-1.1-3.1-1.1c-2.4,0-4.4,1.5-4.4,6.2c0,4.4,1.9,6.1,4.4,6.1
			c1.5,0,2.5-0.6,3.4-1.3l1.1,1.3c-0.9,0.9-2.4,1.7-4.6,1.7c-3.9,0-6.7-2.8-6.7-7.9c0-5.2,3-7.9,6.7-7.9
			C611.8,279,613,279.5,614.3,280.5z"/>
		<path class="st5" d="M626.2,293.4l-0.5,1.4c-1.2-0.1-2-0.6-2.4-1.7c-0.9,1.2-2.2,1.7-3.7,1.7c-2.4,0-3.9-1.4-3.9-3.5
			c0-2.5,2-3.9,5.4-3.9h1.9v-0.9c0-1.7-0.9-2.3-2.6-2.3c-0.9,0-2,0.2-3.3,0.6l-0.5-1.5c1.5-0.5,2.9-0.8,4.2-0.8c3,0,4.3,1.4,4.3,3.9
			v5.3C625.1,292.8,625.5,293.2,626.2,293.4z M623,291.5v-2.7h-1.6c-2.3,0-3.4,0.8-3.4,2.4c0,1.4,0.7,2.1,2.1,2.1
			C621.4,293.3,622.3,292.7,623,291.5z"/>
		<path class="st5" d="M636.1,282.7l-0.4,2c-0.4-0.1-0.6-0.1-1.1-0.1c-1.5,0-2.4,1-2.9,3.3v6.7h-2.1v-11.7h1.8l0.2,2.4
			c0.7-1.7,1.8-2.6,3.3-2.6C635.3,282.6,635.7,282.6,636.1,282.7z"/>
		<path class="st5" d="M641.1,278.7c0,0.8-0.6,1.4-1.5,1.4c-0.9,0-1.5-0.6-1.5-1.4c0-0.8,0.6-1.4,1.5-1.4
			C640.5,277.3,641.1,277.9,641.1,278.7z M640.7,294.5h-2.1v-11.7h2.1V294.5z"/>
		<path class="st5" d="M654.4,286.2v8.4h-2.1v-8.1c0-1.7-0.7-2.3-1.9-2.3c-1.4,0-2.3,0.8-3.1,2.1v8.3h-2.1v-11.7h1.8l0.2,1.7
			c0.8-1.2,2.1-2,3.7-2C653.1,282.6,654.4,284,654.4,286.2z"/>
		<path class="st5" d="M668.6,283.4c-1,0.3-2.2,0.4-3.6,0.4c1.4,0.6,2.2,1.6,2.2,2.9c0,2.3-1.7,4-4.7,4c-0.6,0-1-0.1-1.6-0.2
			c-0.3,0.2-0.6,0.7-0.6,1.1c0,0.5,0.3,1,1.6,1h2c2.5,0,4.2,1.4,4.2,3.2c0,2.3-2,3.5-5.7,3.5c-4,0-5.3-1.2-5.3-3.5h1.9
			c0,1.3,0.6,1.9,3.3,1.9c2.7,0,3.6-0.6,3.6-1.8c0-1.1-0.9-1.7-2.5-1.7h-1.9c-2.2,0-3.2-1-3.2-2.2c0-0.8,0.5-1.5,1.3-2.1
			c-1.4-0.7-2.1-1.7-2.1-3.2c0-2.4,2-4.1,4.7-4.1c3,0.1,4.2-0.4,5.6-1L668.6,283.4z M659.8,286.7c0,1.6,0.9,2.6,2.6,2.6
			c1.7,0,2.6-1,2.6-2.7c0-1.7-0.9-2.6-2.6-2.6C660.7,284.1,659.8,285.1,659.8,286.7z"/>
		<path class="st5" d="M673,293.2c0,0.9-0.7,1.5-1.6,1.5c-0.9,0-1.6-0.7-1.6-1.5c0-0.8,0.7-1.5,1.6-1.5
			C672.3,291.7,673,292.4,673,293.2z"/>
		<path class="st5" d="M687.3,288.1h-2.5v6.5h-2.2v-15.3h4.2c4,0,6.1,1.5,6.1,4.3c0,2.1-1.2,3.4-3.5,4.1l4.3,6.8h-2.6L687.3,288.1z
			 M687.1,286.5c2.2,0,3.5-0.8,3.5-2.9c0-1.9-1.1-2.7-3.8-2.7h-2v5.5H687.1z"/>
		<path class="st5" d="M705.5,289.4h-7.8c0.2,2.7,1.5,3.7,3.3,3.7c1.2,0,2.1-0.3,3.2-1l0.9,1.2c-1.2,0.9-2.6,1.5-4.3,1.5
			c-3.4,0-5.4-2.3-5.4-6c0-3.6,1.9-6.2,5.1-6.2c3.3,0,5,2.2,5,5.8C705.5,288.8,705.5,289.1,705.5,289.4z M703.4,287.8
			c0-2.3-1-3.5-2.9-3.5c-1.6,0-2.7,1.1-2.9,3.7h5.7V287.8z"/>
		<path class="st5" d="M716.4,283.9l-0.9,1.3c-1.1-0.7-2-1-3.2-1c-1.4,0-2.3,0.6-2.3,1.5c0,1,0.7,1.4,2.6,1.9
			c2.6,0.6,4.1,1.6,4.1,3.6c0,2.4-2.3,3.5-4.8,3.5c-2.1,0-3.6-0.6-4.6-1.5l1.1-1.2c1,0.7,2.1,1.1,3.4,1.1c1.6,0,2.6-0.7,2.6-1.8
			c0-1.2-0.6-1.6-3-2.2c-2.7-0.7-3.7-1.7-3.7-3.4c0-1.9,1.9-3.2,4.4-3.2C714,282.6,715.2,283.1,716.4,283.9z"/>
		<path class="st5" d="M729.9,288.7c0,3.5-1.7,6.1-4.8,6.1c-1.3,0-2.4-0.4-3.2-1.3v5.5l-2.1,0.2v-16.4h1.8l0.2,1.6
			c0.9-1.2,2.2-1.8,3.6-1.8C728.7,282.6,729.9,285,729.9,288.7z M727.6,288.7c0-3-0.9-4.5-2.8-4.5c-1.3,0-2.3,0.9-3,1.8v5.7
			c0.6,0.9,1.6,1.4,2.7,1.4C726.6,293.1,727.6,291.7,727.6,288.7z"/>
		<path class="st5" d="M743.6,288.7c0,3.6-2,6.1-5.5,6.1c-3.5,0-5.5-2.4-5.5-6.1c0-3.6,2-6.1,5.5-6.1S743.6,285,743.6,288.7z
			 M735,288.7c0,3,1.1,4.5,3.2,4.5c2,0,3.2-1.4,3.2-4.5c0-3-1.1-4.5-3.1-4.5C736.1,284.2,735,285.7,735,288.7z"/>
		<path class="st5" d="M756.5,286.2v8.4h-2.1v-8.1c0-1.7-0.7-2.3-1.9-2.3c-1.4,0-2.3,0.8-3.1,2.1v8.3h-2.1v-11.7h1.8l0.2,1.7
			c0.8-1.2,2.1-2,3.7-2C755.2,282.6,756.5,284,756.5,286.2z"/>
		<path class="st5" d="M768.3,283.9l-0.9,1.3c-1.1-0.7-2-1-3.2-1c-1.4,0-2.3,0.6-2.3,1.5c0,1,0.7,1.4,2.6,1.9
			c2.6,0.6,4.1,1.6,4.1,3.6c0,2.4-2.3,3.5-4.8,3.5c-2.1,0-3.6-0.6-4.6-1.5l1.1-1.2c1,0.7,2.1,1.1,3.4,1.1c1.6,0,2.6-0.7,2.6-1.8
			c0-1.2-0.6-1.6-3-2.2c-2.7-0.7-3.7-1.7-3.7-3.4c0-1.9,1.9-3.2,4.4-3.2C765.8,282.6,767.1,283.1,768.3,283.9z"/>
		<path class="st5" d="M774.2,278.7c0,0.8-0.6,1.4-1.5,1.4c-0.9,0-1.5-0.6-1.5-1.4c0-0.8,0.6-1.4,1.5-1.4
			C773.6,277.3,774.2,277.9,774.2,278.7z M773.8,294.5h-2.1v-11.7h2.1V294.5z"/>
		<path class="st5" d="M788.4,288.7c0,3.7-1.8,6.1-4.8,6.1c-1.3,0-2.4-0.6-3.3-1.5l-0.2,1.3h-1.9v-16.4l2.1-0.2v6.4
			c0.8-1.1,2-1.7,3.5-1.7C786.6,282.6,788.4,284.8,788.4,288.7z M786.1,288.7c0-3.3-1.1-4.5-2.9-4.5c-1.3,0-2.2,0.9-2.9,1.8v5.6
			c0.6,0.9,1.6,1.6,2.7,1.6C784.8,293.2,786.1,291.9,786.1,288.7z"/>
		<path class="st5" d="M791.9,292.2v-14.1l2.1-0.2v14.3c0,0.6,0.2,0.9,0.8,0.9c0.3,0,0.6,0,0.8-0.1l0.6,1.4
			c-0.5,0.2-1.1,0.4-1.7,0.4C792.9,294.8,791.9,293.9,791.9,292.2z"/>
		<path class="st5" d="M807.9,289.4h-7.8c0.2,2.7,1.5,3.7,3.3,3.7c1.2,0,2.1-0.3,3.2-1l0.9,1.2c-1.2,0.9-2.6,1.5-4.3,1.5
			c-3.4,0-5.4-2.3-5.4-6c0-3.6,1.9-6.2,5.1-6.2c3.3,0,5,2.2,5,5.8C808,288.8,807.9,289.1,807.9,289.4z M805.8,287.8
			c0-2.3-1-3.5-2.9-3.5c-1.6,0-2.7,1.1-2.9,3.7h5.7V287.8z"/>
	</g>
	<line class="st6" x1="540.6" y1="255" x2="741.3" y2="255"/>
	<polyline class="st7" points="239.8,326.4 239.8,153.7 420.5,153.7 420.5,326.4 	"/>
	<ellipse class="st8" cx="330.2" cy="240.9" rx="46.3" ry="47.2"/>
	<line class="st9" x1="330" y1="153.3" x2="330" y2="326.7"/>
	<polygon class="st10" points="330,311.5 260.4,240.9 330,170.3 399.6,240.9 	"/>
	<line class="st11" x1="260.4" y1="240.9" x2="330" y2="279.1"/>
	<line class="st11" x1="399.6" y1="240.9" x2="330" y2="221.5"/>
	<line class="st12" x1="261.6" y1="240.9" x2="330" y2="222.5"/>
</g>
</svg>
